<svg width="120" height="120" viewBox="0 0 120 120" fill="none" xmlns="http://www.w3.org/2000/svg">
  <!-- Outer Hexagon -->
  <path d="M60 8 L105 32 L105 88 L60 112 L15 88 L15 32 Z" stroke="#2c3e6b" stroke-width="3" fill="none"/>
  
  <!-- Inner flowing shape - main body -->
  <path d="M35 50 Q45 25 65 30 Q85 35 85 50 Q85 65 65 75 Q45 85 35 70 Q28 60 35 50 Z" fill="#2c3e6b"/>
  
  <!-- Wave lines - white flowing curves -->
  <path d="M32 52 Q45 35 60 38 Q75 41 82 50" stroke="white" stroke-width="3" fill="none" stroke-linecap="round"/>
  <path d="M30 58 Q45 42 60 46 Q75 50 83 58" stroke="white" stroke-width="2.5" fill="none" stroke-linecap="round" opacity="0.8"/>
  <path d="M33 64 Q48 50 60 53 Q72 56 80 64" stroke="white" stroke-width="2" fill="none" stroke-linecap="round" opacity="0.5"/>
  
  <!-- Accent highlights -->
  <path d="M38 48 Q50 32 65 35 Q78 38 83 48" stroke="#6b8cce" stroke-width="1.5" fill="none" stroke-linecap="round" opacity="0.4"/>
</svg>
